{"title":"Independence Day (1996) 1080p","uid":11299823,"size":4189978109,"categoryP":"video","categoryS":"hd___movies","magnet":"?xt=urn:btih:62c1fc0f4587612def8bed9128133b5c153ce935&amp;dn=Independence+Day+%281996%29+1080p&amp;tr=udp%3A%2F%2Ftracker.openbittorrent.com%3A80&amp;tr=udp%3A%2F%2Fopen.demonii.com%3A1337&amp;tr=udp%3A%2F%2Ftracker.coppersurfer.tk%3A6969&amp;tr=udp%3A%2F%2Fexodus.desync.com%3A6969","seeders":5,"leechers":0,"uploader":"AlienMethod","files":7,"time":1414415850,"description":"Double-Encode/MP4x264\n2-Channel AAC@192kbps (audio 1)\n6-Channel AC3@448kbps (audio 2)\nEnglish Subs Incl.\n\n&quot;The aliens are coming and their goal is to invade and destroy. Fighting superior technology, Man's best weapon is the will to survive.&quot;\n\n\n\nVideo\nID : 1\nFormat : AVC\nFormat/Info : Advanced Video Codec\nFormat profile : &lt;a class=&quot;__cf_email__&quot; href=&quot;/cdn-cgi/l/email-protection&quot; data-cfemail=&quot;de96b7b9b69e92eaf0ee&quot;&gt;[email&amp;#160;protected]&lt;/a&gt;&lt;script cf-hash='f9e31' type=&quot;text/javascript&quot;&gt;\n/* &lt;![CDATA[ */!function(){try{var t=&quot;currentScript&quot;in document?document.currentScript:function(){for(var t=document.getElementsByTagName(&quot;script&quot;),e=t.length;e--;)if(t[e].getAttribute(&quot;cf-hash&quot;))return t[e]}();if(t&amp;&amp;t.previousSibling){var e,r,n,i,c=t.previousSibling,a=c.getAttribute(&quot;data-cfemail&quot;);if(a){for(e=&quot;&quot;,r=parseInt(a.substr(0,2),16),n=2;a.length-n;n+=2)i=parseInt(a.substr(n,2),16)^r,e+=String.fromCharCode(i);e=document.createTextNode(e),c.parentNode.replaceChild(e,c)}}}catch(u){}}();/* ]]&gt; */&lt;/script&gt;\nFormat settings, CABAC : Yes\nFormat settings, ReFrames : 4 frames\nCodec ID : avc1\nCodec ID/Info : Advanced Video Coding\nDuration : 2h 24mn\nBit rate : 3 184 Kbps\nMaximum bit rate : 20.3 Mbps\nWidth : 1 904 pixels\nHeight : 800 pixels\nDisplay aspect ratio : 2.40:1\nFrame rate mode : Constant\nFrame rate : 23.976 fps\nColor space : YUV\nChroma subsampling : 4:2:0\nBit depth : 8 bits\nScan type : Progressive\nBits/(Pixel*Frame) : 0.087\nStream size : 3.22 GiB (83%)\nTitle : Independence.Day.1996.VideoEncode_track1_und.h264\nWriting library : x264 core 142 r2479 dd79a61\nEncoded date : UTC 2014-10-27 03:08:39\nTagged date : UTC 2014-10-27 03:09:34\n\nAudio #1\nID : 2\nFormat : AAC\nFormat/Info : Advanced Audio Codec\nFormat profile : LC\nCodec ID : 40\nDuration : 2h 24mn\nBit rate mode : Variable\nBit rate : 223 Kbps\nMaximum bit rate : 259 Kbps\nChannel(s) : 2 channels\nChannel positions : Front: L R\nSampling rate : 48.0 KHz\nCompression mode : Lossy\nStream size : 230 MiB (6%)\nTitle : Independence.Day.1996.AAC.m4a\nEncoded date : UTC 2014-10-27 03:08:54\nTagged date : UTC 2014-10-27 03:09:34\n\nAudio #2\nID : 3\nFormat : AC-3\nFormat/Info : Audio Coding 3\nMode extension : CM (complete main)\nFormat settings, Endianness : Big\nCodec ID : ac-3\nDuration : 2h 24mn\nBit rate mode : Constant\nBit rate : 448 Kbps\nChannel(s) : 6 channels\nChannel positions : Front: L C R, Side: L R, LFE\nSampling rate : 48.0 KHz\nBit depth : 16 bits\nCompression mode : Lossy\nStream size : 464 MiB (12%)\nTitle : Independence.Day.1996.AC3.ac3\nEncoded date : UTC 2014-10-27 03:09:25\nTagged date : UTC 2014-10-27 03:09:34\n\nm/ AM m/","torrent":{"xt":"urn:btih:62c1fc0f4587612def8bed9128133b5c153ce935","amp;dn":"Independence+Day+%281996%29+1080p","amp;tr":["udp%3A%2F%2Ftracker.openbittorrent.com%3A80","udp%3A%2F%2Fopen.demonii.com%3A1337","udp%3A%2F%2Ftracker.coppersurfer.tk%3A6969","udp%3A%2F%2Fexodus.desync.com%3A6969"],"infoHash":"62c1fc0f4587612def8bed9128133b5c153ce935","infoHashBuffer":{"type":"Buffer","data":[98,193,252,15,69,135,97,45,239,139,237,145,40,19,59,92,21,60,233,53]},"announce":[],"urlList":[]}}